<mxfile host="app.diagrams.net" modified="2023-08-27T04:01:22.090Z" agent="Mozilla/5.0 (Macintosh; Intel Mac OS X 10_15_7) AppleWebKit/537.36 (KHTML, like Gecko) Chrome/116.0.0.0 Safari/537.36" etag="fpt9GZiz6_snSCh_rlEM" version="21.6.9" type="github">
  <diagram id="3228e29e-7158-1315-38df-8450db1d8a1d" name="Page-1">
    <mxGraphModel dx="1042" dy="962" grid="0" gridSize="10" guides="1" tooltips="1" connect="1" arrows="1" fold="1" page="1" pageScale="1" pageWidth="900" pageHeight="300" background="#EFF1F3" math="0" shadow="0">
      <root>
        <mxCell id="0" />
        <mxCell id="1" parent="0" />
        <mxCell id="aMB2SkQLuwcF9kNnRCJI-1" value="&lt;div style=&quot;font-family: Menlo, Monaco, &amp;quot;Courier New&amp;quot;, monospace; font-size: 16px; line-height: 24px;&quot;&gt;&lt;div style=&quot;&quot;&gt;&lt;br&gt;&lt;/div&gt;&lt;/div&gt;" style="rounded=1;whiteSpace=wrap;html=1;strokeWidth=5;fontSize=30;strokeColor=none;fillColor=#9AC7BF;align=left;" parent="1" vertex="1">
          <mxGeometry x="52" y="353" width="351" height="203" as="geometry" />
        </mxCell>
        <mxCell id="CNL9ZWAu0hiXVesVUDJu-1" value="&lt;div style=&quot;font-family: Menlo, Monaco, &amp;quot;Courier New&amp;quot;, monospace; font-size: 18px; line-height: 24px;&quot;&gt;&lt;div style=&quot;font-size: 20px;&quot;&gt;&lt;div style=&quot;line-height: 24px;&quot;&gt;&lt;div style=&quot;font-size: 22px;&quot;&gt;&lt;div style=&quot;line-height: 24px;&quot;&gt;&lt;div style=&quot;&quot;&gt;&lt;span style=&quot;color: rgb(26, 26, 26); background-color: initial;&quot;&gt;{&lt;/span&gt;&lt;br&gt;&lt;/div&gt;&lt;/div&gt;&lt;/div&gt;&lt;/div&gt;&lt;/div&gt;&lt;/div&gt;&lt;blockquote style=&quot;margin: 0 0 0 40px; border: none; padding: 0px;&quot;&gt;&lt;div style=&quot;font-family: Menlo, Monaco, &amp;quot;Courier New&amp;quot;, monospace; font-size: 18px; line-height: 24px;&quot;&gt;&lt;div style=&quot;font-size: 20px;&quot;&gt;&lt;div style=&quot;line-height: 24px;&quot;&gt;&lt;div style=&quot;font-size: 22px;&quot;&gt;&lt;div style=&quot;line-height: 24px;&quot;&gt;&lt;div style=&quot;&quot;&gt;&lt;font style=&quot;font-size: 22px;&quot; color=&quot;#1a1a1a&quot;&gt;    &quot;PracticeTime&quot;:&quot;2.5&quot;,&lt;/font&gt;&lt;/div&gt;&lt;/div&gt;&lt;/div&gt;&lt;/div&gt;&lt;/div&gt;&lt;/div&gt;&lt;div style=&quot;font-family: Menlo, Monaco, &amp;quot;Courier New&amp;quot;, monospace; font-size: 18px; line-height: 24px;&quot;&gt;&lt;div style=&quot;font-size: 20px;&quot;&gt;&lt;div style=&quot;line-height: 24px;&quot;&gt;&lt;div style=&quot;font-size: 22px;&quot;&gt;&lt;div style=&quot;line-height: 24px;&quot;&gt;&lt;div style=&quot;&quot;&gt;&lt;font style=&quot;font-size: 22px;&quot; color=&quot;#1a1a1a&quot;&gt;&quot;Age&quot;:18&lt;/font&gt;&lt;/div&gt;&lt;/div&gt;&lt;/div&gt;&lt;/div&gt;&lt;/div&gt;&lt;/div&gt;&lt;/blockquote&gt;&lt;div style=&quot;font-family: Menlo, Monaco, &amp;quot;Courier New&amp;quot;, monospace; font-size: 18px; line-height: 24px;&quot;&gt;&lt;div style=&quot;font-size: 20px;&quot;&gt;&lt;div style=&quot;line-height: 24px;&quot;&gt;&lt;div style=&quot;font-size: 22px;&quot;&gt;&lt;div style=&quot;line-height: 24px;&quot;&gt;&lt;div style=&quot;&quot;&gt;&lt;font style=&quot;font-size: 22px;&quot; color=&quot;#1a1a1a&quot;&gt;}&lt;/font&gt;&lt;/div&gt;&lt;/div&gt;&lt;/div&gt;&lt;/div&gt;&lt;/div&gt;&lt;/div&gt;" style="text;html=1;strokeColor=none;fillColor=none;align=left;verticalAlign=middle;whiteSpace=wrap;rounded=0;labelBackgroundColor=none;fontColor=#000000;" parent="1" vertex="1">
          <mxGeometry x="73" y="367.5" width="299" height="174" as="geometry" />
        </mxCell>
        <mxCell id="CNL9ZWAu0hiXVesVUDJu-5" value="" style="endArrow=classic;html=1;rounded=0;fontColor=#000000;strokeWidth=5;strokeColor=#4A919B;" parent="1" edge="1">
          <mxGeometry width="50" height="50" relative="1" as="geometry">
            <mxPoint x="406" y="459.79" as="sourcePoint" />
            <mxPoint x="541" y="459.79" as="targetPoint" />
          </mxGeometry>
        </mxCell>
        <mxCell id="CNL9ZWAu0hiXVesVUDJu-7" value="&lt;font color=&quot;#4d4d4d&quot;&gt;&lt;span style=&quot;font-size: 18px;&quot;&gt;字段抽象为&lt;br&gt;key-value&lt;/span&gt;&lt;/font&gt;" style="text;html=1;strokeColor=none;fillColor=none;align=center;verticalAlign=middle;whiteSpace=wrap;rounded=0;labelBackgroundColor=none;fontColor=#000000;" parent="1" vertex="1">
          <mxGeometry x="403" y="420" width="127" height="30" as="geometry" />
        </mxCell>
        <mxCell id="hOdD8HrPZMyJQa8nyxl9-1" value="&lt;div style=&quot;font-family: Menlo, Monaco, &amp;quot;Courier New&amp;quot;, monospace; font-size: 16px; line-height: 24px;&quot;&gt;&lt;div style=&quot;&quot;&gt;&lt;br&gt;&lt;/div&gt;&lt;/div&gt;" style="rounded=1;whiteSpace=wrap;html=1;strokeWidth=5;fontSize=30;strokeColor=none;fillColor=#9AC7BF;align=left;" vertex="1" parent="1">
          <mxGeometry x="549" y="359.5" width="300" height="203" as="geometry" />
        </mxCell>
        <mxCell id="hOdD8HrPZMyJQa8nyxl9-2" value="&lt;div style=&quot;font-family: Menlo, Monaco, &amp;quot;Courier New&amp;quot;, monospace; font-size: 18px; line-height: 24px;&quot;&gt;&lt;div style=&quot;font-size: 20px;&quot;&gt;&lt;div style=&quot;line-height: 24px;&quot;&gt;&lt;div style=&quot;font-size: 22px;&quot;&gt;&lt;div style=&quot;line-height: 24px;&quot;&gt;&lt;div style=&quot;&quot;&gt;&lt;span style=&quot;color: rgb(26, 26, 26); background-color: initial;&quot;&gt;{&lt;/span&gt;&lt;br&gt;&lt;/div&gt;&lt;/div&gt;&lt;/div&gt;&lt;/div&gt;&lt;/div&gt;&lt;/div&gt;&lt;blockquote style=&quot;margin: 0 0 0 40px; border: none; padding: 0px;&quot;&gt;&lt;div style=&quot;font-family: Menlo, Monaco, &amp;quot;Courier New&amp;quot;, monospace; font-size: 18px; line-height: 24px;&quot;&gt;&lt;div style=&quot;font-size: 20px;&quot;&gt;&lt;div style=&quot;line-height: 24px;&quot;&gt;&lt;div style=&quot;font-size: 22px;&quot;&gt;&lt;div style=&quot;line-height: 24px;&quot;&gt;&lt;div style=&quot;&quot;&gt;&lt;font style=&quot;font-size: 22px;&quot; color=&quot;#1a1a1a&quot;&gt;    &quot;ke1&quot;:&quot;value1&quot;,&lt;/font&gt;&lt;/div&gt;&lt;/div&gt;&lt;/div&gt;&lt;/div&gt;&lt;/div&gt;&lt;/div&gt;&lt;div style=&quot;font-family: Menlo, Monaco, &amp;quot;Courier New&amp;quot;, monospace; font-size: 18px; line-height: 24px;&quot;&gt;&lt;div style=&quot;font-size: 20px;&quot;&gt;&lt;div style=&quot;line-height: 24px;&quot;&gt;&lt;div style=&quot;font-size: 22px;&quot;&gt;&lt;div style=&quot;line-height: 24px;&quot;&gt;&lt;div style=&quot;&quot;&gt;&lt;font style=&quot;font-size: 22px;&quot; color=&quot;#1a1a1a&quot;&gt;&quot;key2&quot;:value2&lt;/font&gt;&lt;/div&gt;&lt;/div&gt;&lt;/div&gt;&lt;/div&gt;&lt;/div&gt;&lt;/div&gt;&lt;/blockquote&gt;&lt;div style=&quot;font-family: Menlo, Monaco, &amp;quot;Courier New&amp;quot;, monospace; font-size: 18px; line-height: 24px;&quot;&gt;&lt;div style=&quot;font-size: 20px;&quot;&gt;&lt;div style=&quot;line-height: 24px;&quot;&gt;&lt;div style=&quot;font-size: 22px;&quot;&gt;&lt;div style=&quot;line-height: 24px;&quot;&gt;&lt;div style=&quot;&quot;&gt;&lt;font style=&quot;font-size: 22px;&quot; color=&quot;#1a1a1a&quot;&gt;}&lt;/font&gt;&lt;/div&gt;&lt;/div&gt;&lt;/div&gt;&lt;/div&gt;&lt;/div&gt;&lt;/div&gt;" style="text;html=1;strokeColor=none;fillColor=none;align=left;verticalAlign=middle;whiteSpace=wrap;rounded=0;labelBackgroundColor=none;fontColor=#000000;" vertex="1" parent="1">
          <mxGeometry x="579" y="379.5" width="250" height="174" as="geometry" />
        </mxCell>
      </root>
    </mxGraphModel>
  </diagram>
</mxfile>
